<?xml version="1.0" encoding="utf-8"?>
<!-- Generator: Adobe Illustrator 14.0.0, SVG Export Plug-In . SVG Version: 6.00 Build 43363)  -->
<!DOCTYPE svg PUBLIC "-//W3C//DTD SVG 1.1//EN" "http://www.w3.org/Graphics/SVG/1.1/DTD/svg11.dtd">
<svg version="1.1" id="Calque_1" xmlns="http://www.w3.org/2000/svg" xmlns:xlink="http://www.w3.org/1999/xlink" x="0px" y="0px"
	 width="800px" height="600px" viewBox="0 0 800 600" enable-background="new 0 0 800 600" xml:space="preserve">
<rect fill="#FFFFFF" width="541.083" height="253.593"/>
<rect y="253.593" width="541.083" height="253.593"/>
<g>
	<defs>
		<filter id="Adobe_OpacityMaskFilter" filterUnits="userSpaceOnUse" x="34.036" y="189.104" width="101.678" height="14.93">
			<feColorMatrix  type="matrix" values="1 0 0 0 0  0 1 0 0 0  0 0 1 0 0  0 0 0 1 0"/>
		</filter>
	</defs>
	<mask maskUnits="userSpaceOnUse" x="34.036" y="189.104" width="101.678" height="14.93" id="SVGID_1_">
		<g filter="url(#Adobe_OpacityMaskFilter)">
			
				<radialGradient id="SVGID_2_" cx="-293.3999" cy="416.8125" r="97.3494" gradientTransform="matrix(0.5337 0 0 -0.0823 241.2666 230.4701)" gradientUnits="userSpaceOnUse">
				<stop  offset="0" style="stop-color:#FFFFFF"/>
				<stop  offset="0.0371" style="stop-color:#F1F1F1"/>
				<stop  offset="0.2799" style="stop-color:#9D9D9D"/>
				<stop  offset="0.4945" style="stop-color:#5A5A5A"/>
				<stop  offset="0.6728" style="stop-color:#292929"/>
				<stop  offset="0.8081" style="stop-color:#0B0B0B"/>
				<stop  offset="0.8846" style="stop-color:#000000"/>
			</radialGradient>
			<ellipse fill="url(#SVGID_2_)" cx="84.679" cy="196.166" rx="51.958" ry="8.011"/>
		</g>
	</mask>
	
		<radialGradient id="SVGID_3_" cx="-293.0337" cy="392.4805" r="95.2363" gradientTransform="matrix(0.5337 0 0 -0.0784 241.2666 227.3388)" gradientUnits="userSpaceOnUse">
		<stop  offset="0.1099" style="stop-color:#58585A"/>
		<stop  offset="0.2486" style="stop-color:#5B5B5D"/>
		<stop  offset="0.3687" style="stop-color:#666668"/>
		<stop  offset="0.482" style="stop-color:#787879"/>
		<stop  offset="0.5912" style="stop-color:#919192"/>
		<stop  offset="0.6973" style="stop-color:#B1B1B2"/>
		<stop  offset="0.7997" style="stop-color:#D8D8D9"/>
		<stop  offset="0.8846" style="stop-color:#FFFFFF"/>
	</radialGradient>
	<ellipse opacity="0.1" mask="url(#SVGID_1_)" fill="url(#SVGID_3_)" cx="84.875" cy="196.568" rx="50.839" ry="7.465"/>
	<defs>
		<filter id="Adobe_OpacityMaskFilter_1_" filterUnits="userSpaceOnUse" x="53.217" y="192.814" width="63.316" height="7.507">
			<feColorMatrix  type="matrix" values="1 0 0 0 0  0 1 0 0 0  0 0 1 0 0  0 0 0 1 0"/>
		</filter>
	</defs>
	<mask maskUnits="userSpaceOnUse" x="53.217" y="192.814" width="63.316" height="7.507" id="SVGID_4_">
		<g filter="url(#Adobe_OpacityMaskFilter_1_)">
			
				<radialGradient id="SVGID_5_" cx="-486.7949" cy="1.7578" r="80.1294" gradientTransform="matrix(0.4179 0 0 -0.0541 287.6948 196.717)" gradientUnits="userSpaceOnUse">
				<stop  offset="0.1648" style="stop-color:#FFFFFF"/>
				<stop  offset="0.1716" style="stop-color:#FAFAFA"/>
				<stop  offset="0.2538" style="stop-color:#C0C0C0"/>
				<stop  offset="0.3381" style="stop-color:#8D8D8D"/>
				<stop  offset="0.4227" style="stop-color:#626262"/>
				<stop  offset="0.5077" style="stop-color:#3E3E3E"/>
				<stop  offset="0.5932" style="stop-color:#232323"/>
				<stop  offset="0.6794" style="stop-color:#0F0F0F"/>
				<stop  offset="0.7667" style="stop-color:#040404"/>
				<stop  offset="0.8571" style="stop-color:#000000"/>
			</radialGradient>
			<ellipse fill="url(#SVGID_5_)" cx="84.263" cy="196.622" rx="33.484" ry="4.335"/>
		</g>
	</mask>
	
		<radialGradient id="SVGID_6_" cx="-485.3291" cy="-114.9375" r="75.7915" gradientTransform="matrix(0.4179 0 0 -0.0495 287.6948 190.8789)" gradientUnits="userSpaceOnUse">
		<stop  offset="0.1099" style="stop-color:#BFC0C1"/>
		<stop  offset="0.3219" style="stop-color:#C2C3C4"/>
		<stop  offset="0.5056" style="stop-color:#CDCECF"/>
		<stop  offset="0.6787" style="stop-color:#DFDFE0"/>
		<stop  offset="0.8444" style="stop-color:#F8F8F8"/>
		<stop  offset="0.8846" style="stop-color:#FFFFFF"/>
	</radialGradient>
	<ellipse opacity="0.94" mask="url(#SVGID_4_)" fill="url(#SVGID_6_)" cx="84.875" cy="196.568" rx="31.658" ry="3.754"/>
</g>
<g>
	<linearGradient id="SVGID_7_" gradientUnits="userSpaceOnUse" x1="84.8745" y1="99.9561" x2="84.8745" y2="188.0469">
		<stop  offset="0" style="stop-color:#0D0D0D"/>
		<stop  offset="1" style="stop-color:#404040"/>
	</linearGradient>
	<path fill="url(#SVGID_7_)" d="M76.448,99.956v74.858c0,0.014-0.001,0.027-0.001,0.04c0,7.286,1.141,13.192,8.428,13.192
		c7.285,0,8.428-5.906,8.428-13.192V99.956H76.448z"/>
	<path d="M84.875,193.564c-7.689,0-13.944-6.256-13.944-13.945l0.002-78.913h-4.597c-0.414,0-0.75-0.336-0.75-0.75v-3.944
		c0-0.414,0.336-0.75,0.75-0.75h37.079c0.414,0,0.75,0.336,0.75,0.75v3.944c0,0.414-0.336,0.75-0.75,0.75h-4.597v78.913
		C98.818,187.309,92.563,193.564,84.875,193.564L84.875,193.564z M67.085,99.206h4.597c0.414,0,0.75,0.336,0.75,0.75v79.626
		c-0.002,6.899,5.581,12.482,12.442,12.482c6.861,0,12.443-5.583,12.443-12.445V99.956c0-0.414,0.336-0.75,0.75-0.75h4.597v-2.444
		H67.085V99.206L67.085,99.206z"/>
	<path fill="#FECD1A" d="M95.446,32.188c0-13.567-21.04-13.567-21.04,0c0,2.804-0.294,5.771,0.112,8.555l0,0
		c2.914,21.822,4.286,44.162,8.34,65.78c1.922-15.376,2.406-31.058,6.94-45.981C92.178,50.86,95.446,42.174,95.446,32.188"/>
	<path fill="#622181" d="M120.181,42.909c-4.722-3.385-11.296-2.298-14.678,2.427c-12.813,17.89-18.847,41.476-17.435,63.445
		C90.991,99.8,94.188,90.75,99.376,82.79c4.789-7.348,11.58-12.066,17.834-17.992c0.003-0.002,0.003-0.002,0.004-0.005
		c2.132-2.023,3.694-4.831,5.395-7.204C125.993,52.864,124.905,46.293,120.181,42.909"/>
	<path fill="#622181" d="M59.774,56.161c2.376-1.702,5.682-1.155,7.381,1.22c6.624,8.758,9.465,21.053,8.768,31.904
		c-3.18-9.777-7.568-15.03-14.654-22.117c0,0-0.001,0-0.001-0.003c-1.062-1.004-1.911-2.417-2.713-3.623
		C56.854,61.167,57.399,57.86,59.774,56.161"/>
</g>
<g>
	<path d="M146.906,104.756l-5.462,15.266h-7.021l17.866-48.532h8.192l17.944,48.532h-7.256l-5.617-15.266H146.906z M164.148,99.859
		l-5.149-13.969c-1.171-3.168-1.95-6.049-2.73-8.856h-0.156c-0.78,2.88-1.639,5.832-2.652,8.784l-5.149,14.041H164.148z"/>
	<path d="M183.732,96.548c0-4.465-0.156-8.065-0.312-11.377h6.164l0.312,5.977h0.156c2.809-4.249,7.256-6.77,13.419-6.77
		c9.129,0,15.994,7.129,15.994,17.714c0,12.529-8.27,18.722-17.164,18.722c-4.993,0-9.362-2.016-11.625-5.473h-0.155v18.938h-6.788
		V96.548z M190.52,105.836c0,0.937,0.155,1.801,0.312,2.593c1.248,4.393,5.384,7.416,10.299,7.416
		c7.255,0,11.469-5.472,11.469-13.465c0-6.984-3.979-12.961-11.235-12.961c-4.681,0-9.05,3.096-10.376,7.849
		c-0.234,0.792-0.468,1.729-0.468,2.592V105.836z"/>
	<path d="M252.699,111.669c0,3.024,0.156,5.977,0.624,8.353h-6.241l-0.547-4.393h-0.233c-2.106,2.736-6.164,5.185-11.547,5.185
		c-7.646,0-11.547-4.969-11.547-10.009c0-8.425,8.114-13.033,22.703-12.961v-0.721c0-2.88-0.857-8.064-8.582-8.064
		c-3.511,0-7.178,1.008-9.83,2.593l-1.561-4.177c3.121-1.872,7.646-3.097,12.405-3.097c11.547,0,14.355,7.273,14.355,14.258V111.669
		z M246.067,102.236c-7.489-0.145-15.993,1.08-15.993,7.849c0,4.104,2.964,6.048,6.475,6.048c4.916,0,8.036-2.88,9.129-5.832
		c0.233-0.648,0.39-1.368,0.39-2.017V102.236z"/>
	<path d="M288.743,118.726c-1.794,0.864-5.773,2.088-10.845,2.088c-11.391,0-18.802-7.2-18.802-17.857
		c0-10.729,7.958-18.506,20.284-18.506c4.058,0,7.646,0.937,9.519,1.801l-1.561,4.896c-1.638-0.864-4.213-1.656-7.958-1.656
		c-8.659,0-13.341,5.904-13.341,13.177c0,8.064,5.617,13.033,13.107,13.033c3.9,0,6.476-0.937,8.426-1.729L288.743,118.726z"/>
	<path d="M294.829,68.897h6.865v21.745h0.156c1.093-1.8,2.809-3.384,4.915-4.464c2.028-1.08,4.447-1.801,7.021-1.801
		c5.071,0,13.186,2.881,13.186,14.905v20.738h-6.865v-20.018c0-5.616-2.263-10.369-8.738-10.369c-4.447,0-7.958,2.88-9.206,6.337
		c-0.391,0.864-0.469,1.8-0.469,3.024v21.025h-6.865V68.897z"/>
	<path d="M340.001,103.748c0.155,8.568,6.085,12.097,12.95,12.097c4.916,0,7.88-0.792,10.455-1.8l1.17,4.536
		c-2.418,1.009-6.554,2.232-12.561,2.232c-11.625,0-18.568-7.129-18.568-17.642s6.709-18.794,17.71-18.794
		c12.327,0,15.604,10.01,15.604,16.418c0,1.296-0.156,2.304-0.234,2.952H340.001z M360.129,99.212
		c0.078-4.032-1.794-10.297-9.518-10.297c-6.943,0-9.986,5.904-10.532,10.297H360.129z"/>
	<path d="M176.241,190.653c-2.185,1.008-7.1,2.16-13.497,2.16c-18.179,0-27.541-10.513-27.541-24.338
		c0-16.562,12.795-25.778,28.711-25.778c6.163,0,10.845,1.152,12.951,2.16l-2.419,8.713c-2.418-0.937-5.773-1.801-9.986-1.801
		c-9.44,0-16.773,5.257-16.773,16.058c0,9.721,6.241,15.842,16.852,15.842c3.589,0,7.567-0.721,9.908-1.584L176.241,190.653z"/>
	<path d="M181.467,140.897h11.859v20.089h0.155c1.249-1.512,2.81-2.735,4.682-3.6c1.794-0.864,3.979-1.368,6.163-1.368
		c7.568,0,13.342,4.824,13.342,15.409v20.594h-11.859v-19.37c0-4.608-1.716-7.776-6.163-7.776c-3.121,0-5.071,1.872-5.93,3.816
		c-0.312,0.72-0.39,1.656-0.39,2.448v20.882h-11.859V140.897z"/>
	<path d="M234.364,177.908c0.39,4.536,5.227,6.696,10.766,6.696c4.058,0,7.334-0.504,10.533-1.439l1.56,7.416
		c-3.9,1.44-8.659,2.232-13.809,2.232c-12.951,0-20.363-6.984-20.363-18.002c0-8.929,6.008-18.793,19.271-18.793
		c12.327,0,17.009,8.856,17.009,17.569c0,1.872-0.234,3.528-0.391,4.32H234.364z M248.329,170.42c0-2.664-1.248-7.129-6.71-7.129
		c-4.993,0-7.021,4.177-7.333,7.129H248.329z"/>
	<path d="M264.479,168.043c0-4.392-0.155-8.137-0.312-11.232h9.986l0.546,4.752h0.234c1.638-2.231,4.993-5.544,11.546-5.544
		c4.916,0,8.816,2.304,10.455,5.977h0.156c1.404-1.872,3.12-3.24,4.915-4.249c2.106-1.151,4.446-1.728,7.256-1.728
		c7.333,0,12.873,4.752,12.873,15.265v20.738h-11.547v-19.153c0-5.112-1.795-8.065-5.617-8.065c-2.731,0-4.682,1.729-5.462,3.816
		c-0.312,0.792-0.468,1.944-0.468,2.809v20.594h-11.547v-19.729c0-4.465-1.717-7.489-5.461-7.489c-3.043,0-4.838,2.16-5.54,3.961
		c-0.39,0.864-0.468,1.872-0.468,2.736v20.521h-11.547V168.043z"/>
	<path d="M341.874,147.018c0,3.024-2.496,5.473-6.397,5.473c-3.745,0-6.241-2.448-6.163-5.473c-0.078-3.168,2.418-5.545,6.241-5.545
		S341.795,143.85,341.874,147.018z M329.625,192.021v-35.211h11.859v35.211H329.625z"/>
	<path d="M348.972,182.444c2.185,1.225,6.71,2.665,10.221,2.665c3.589,0,5.071-1.152,5.071-2.953c0-1.8-1.17-2.664-5.617-4.032
		c-7.88-2.448-10.923-6.408-10.845-10.513c0-6.625,6.086-11.593,15.525-11.593c4.447,0,8.427,0.936,10.767,2.016l-2.106,7.561
		c-1.716-0.863-4.993-2.016-8.27-2.016c-2.887,0-4.525,1.08-4.525,2.88c0,1.656,1.482,2.521,6.163,4.032
		c7.256,2.305,10.299,5.688,10.377,10.873c0,6.553-5.617,11.449-16.54,11.449c-4.993,0-9.44-1.08-12.327-2.521L348.972,182.444z"/>
	<path d="M394.222,147.233v9.577h8.504v8.064h-8.504v12.745c0,4.248,1.092,6.192,4.681,6.192c1.639,0,2.341-0.071,3.511-0.288
		l0.078,8.281c-1.561,0.576-4.37,1.008-7.724,1.008c-3.823,0-7.021-1.296-8.895-3.097c-2.184-2.088-3.276-5.472-3.276-10.44v-14.401
		h-5.071v-8.064h5.071v-6.625L394.222,147.233z"/>
	<path d="M407.641,168.403c0-5.185-0.156-8.568-0.312-11.593h10.221l0.391,6.48h0.311c1.951-5.112,6.633-7.272,10.299-7.272
		c1.092,0,1.639,0,2.498,0.144v10.369c-0.859-0.216-1.873-0.36-3.199-0.36c-4.369,0-7.334,2.16-8.115,5.545
		c-0.154,0.72-0.232,1.584-0.232,2.448v17.857h-11.859V168.403z"/>
	<path d="M445.635,156.811l5.695,17.281c0.623,2.088,1.404,4.681,1.871,6.553h0.234c0.547-1.872,1.17-4.536,1.717-6.553
		l4.682-17.281h12.717l-8.895,23.186c-5.461,13.97-9.129,19.586-13.42,23.114c-4.135,3.312-8.504,4.465-11.469,4.824l-2.496-9.288
		c1.482-0.217,3.355-0.864,5.15-1.873c1.793-0.863,3.744-2.592,4.914-4.392c0.391-0.504,0.625-1.08,0.625-1.584
		c0-0.36-0.078-0.937-0.547-1.801l-13.965-32.187H445.635z"/>
</g>
<g>
	<defs>
		<filter id="Adobe_OpacityMaskFilter_2_" filterUnits="userSpaceOnUse" x="34.036" y="458.104" width="101.678" height="14.93">
			<feColorMatrix  type="matrix" values="1 0 0 0 0  0 1 0 0 0  0 0 1 0 0  0 0 0 1 0"/>
		</filter>
	</defs>
	<mask maskUnits="userSpaceOnUse" x="34.036" y="458.104" width="101.678" height="14.93" id="SVGID_8_">
		<g filter="url(#Adobe_OpacityMaskFilter_2_)">
			
				<radialGradient id="SVGID_9_" cx="-293.3999" cy="-2851.7188" r="97.3494" gradientTransform="matrix(0.5337 0 0 -0.0823 241.2666 230.4701)" gradientUnits="userSpaceOnUse">
				<stop  offset="0" style="stop-color:#FFFFFF"/>
				<stop  offset="0.0371" style="stop-color:#F1F1F1"/>
				<stop  offset="0.2799" style="stop-color:#9D9D9D"/>
				<stop  offset="0.4945" style="stop-color:#5A5A5A"/>
				<stop  offset="0.6728" style="stop-color:#292929"/>
				<stop  offset="0.8081" style="stop-color:#0B0B0B"/>
				<stop  offset="0.8846" style="stop-color:#000000"/>
			</radialGradient>
			<ellipse fill="url(#SVGID_9_)" cx="84.679" cy="465.166" rx="51.958" ry="8.011"/>
		</g>
	</mask>
	
		<radialGradient id="SVGID_10_" cx="-293.0337" cy="-3038.6445" r="95.2363" gradientTransform="matrix(0.5337 0 0 -0.0784 241.2666 227.3388)" gradientUnits="userSpaceOnUse">
		<stop  offset="0.1099" style="stop-color:#58585A"/>
		<stop  offset="0.2486" style="stop-color:#5B5B5D"/>
		<stop  offset="0.3687" style="stop-color:#666668"/>
		<stop  offset="0.482" style="stop-color:#787879"/>
		<stop  offset="0.5912" style="stop-color:#919192"/>
		<stop  offset="0.6973" style="stop-color:#B1B1B2"/>
		<stop  offset="0.7997" style="stop-color:#D8D8D9"/>
		<stop  offset="0.8846" style="stop-color:#FFFFFF"/>
	</radialGradient>
	<ellipse opacity="0.1" mask="url(#SVGID_8_)" fill="url(#SVGID_10_)" cx="84.875" cy="465.568" rx="50.839" ry="7.465"/>
	<defs>
		<filter id="Adobe_OpacityMaskFilter_3_" filterUnits="userSpaceOnUse" x="53.217" y="461.814" width="63.316" height="7.507">
			<feColorMatrix  type="matrix" values="1 0 0 0 0  0 1 0 0 0  0 0 1 0 0  0 0 0 1 0"/>
		</filter>
	</defs>
	<mask maskUnits="userSpaceOnUse" x="53.217" y="461.814" width="63.316" height="7.507" id="SVGID_11_">
		<g filter="url(#Adobe_OpacityMaskFilter_3_)">
			
				<radialGradient id="SVGID_12_" cx="-486.7949" cy="-4970.5156" r="80.1255" gradientTransform="matrix(0.4179 0 0 -0.0541 287.6948 196.717)" gradientUnits="userSpaceOnUse">
				<stop  offset="0.1648" style="stop-color:#FFFFFF"/>
				<stop  offset="0.1716" style="stop-color:#FAFAFA"/>
				<stop  offset="0.2538" style="stop-color:#C0C0C0"/>
				<stop  offset="0.3381" style="stop-color:#8D8D8D"/>
				<stop  offset="0.4227" style="stop-color:#626262"/>
				<stop  offset="0.5077" style="stop-color:#3E3E3E"/>
				<stop  offset="0.5932" style="stop-color:#232323"/>
				<stop  offset="0.6794" style="stop-color:#0F0F0F"/>
				<stop  offset="0.7667" style="stop-color:#040404"/>
				<stop  offset="0.8571" style="stop-color:#000000"/>
			</radialGradient>
			<ellipse fill="url(#SVGID_12_)" cx="84.263" cy="465.622" rx="33.484" ry="4.335"/>
		</g>
	</mask>
	
		<radialGradient id="SVGID_13_" cx="-485.3291" cy="-5549.2812" r="75.7915" gradientTransform="matrix(0.4179 0 0 -0.0495 287.6948 190.8789)" gradientUnits="userSpaceOnUse">
		<stop  offset="0.1099" style="stop-color:#BFC0C1"/>
		<stop  offset="0.3219" style="stop-color:#C2C3C4"/>
		<stop  offset="0.5056" style="stop-color:#CDCECF"/>
		<stop  offset="0.6787" style="stop-color:#DFDFE0"/>
		<stop  offset="0.8444" style="stop-color:#F8F8F8"/>
		<stop  offset="0.8846" style="stop-color:#FFFFFF"/>
	</radialGradient>
	<ellipse opacity="0.94" mask="url(#SVGID_11_)" fill="url(#SVGID_13_)" cx="84.875" cy="465.568" rx="31.658" ry="3.754"/>
</g>
<g>
	<linearGradient id="SVGID_14_" gradientUnits="userSpaceOnUse" x1="84.8745" y1="368.9561" x2="84.8745" y2="457.0469">
		<stop  offset="0" style="stop-color:#0D0D0D"/>
		<stop  offset="1" style="stop-color:#404040"/>
	</linearGradient>
	<path fill="url(#SVGID_14_)" d="M76.448,368.956v74.858c0,0.014-0.001,0.027-0.001,0.04c0,7.286,1.141,13.192,8.428,13.192
		c7.285,0,8.428-5.906,8.428-13.192v-74.898H76.448z"/>
	<path fill="#FFFFFF" d="M84.875,462.564c-7.689,0-13.944-6.256-13.944-13.945l0.002-78.913h-4.597c-0.414,0-0.75-0.336-0.75-0.75
		v-3.944c0-0.414,0.336-0.75,0.75-0.75h37.079c0.414,0,0.75,0.336,0.75,0.75v3.944c0,0.414-0.336,0.75-0.75,0.75h-4.597v78.913
		C98.818,456.309,92.563,462.564,84.875,462.564L84.875,462.564z M67.085,368.206h4.597c0.414,0,0.75,0.336,0.75,0.75v79.626
		c-0.002,6.899,5.581,12.482,12.442,12.482c6.861,0,12.443-5.583,12.443-12.445v-79.663c0-0.414,0.336-0.75,0.75-0.75h4.597v-2.444
		H67.085V368.206L67.085,368.206z"/>
	<path fill="#FECD1A" d="M95.446,301.188c0-13.567-21.04-13.567-21.04,0c0,2.804-0.294,5.771,0.112,8.555l0,0
		c2.914,21.822,4.286,44.162,8.34,65.78c1.922-15.376,2.406-31.058,6.94-45.981C92.178,319.86,95.446,311.174,95.446,301.188"/>
	<path fill="#622181" d="M120.181,311.909c-4.722-3.385-11.296-2.298-14.678,2.427c-12.813,17.89-18.847,41.476-17.435,63.445
		c2.922-8.981,6.119-18.031,11.308-25.991c4.789-7.348,11.58-12.066,17.834-17.992c0.003-0.002,0.003-0.002,0.004-0.005
		c2.132-2.023,3.694-4.831,5.395-7.204C125.993,321.864,124.905,315.293,120.181,311.909"/>
	<path fill="#622181" d="M59.774,325.161c2.376-1.702,5.682-1.155,7.381,1.22c6.624,8.758,9.465,21.053,8.768,31.904
		c-3.18-9.777-7.568-15.03-14.654-22.117c0,0-0.001,0-0.001-0.003c-1.062-1.004-1.911-2.417-2.713-3.623
		C56.854,330.167,57.399,326.86,59.774,325.161"/>
</g>
<g>
	<path fill="#FFFFFF" d="M146.906,373.756l-5.462,15.266h-7.021l17.866-48.532h8.192l17.944,48.532h-7.256l-5.617-15.266H146.906z
		 M164.148,368.859l-5.149-13.969c-1.171-3.168-1.95-6.049-2.73-8.856h-0.156c-0.78,2.88-1.639,5.832-2.652,8.784l-5.149,14.041
		H164.148z"/>
	<path fill="#FFFFFF" d="M183.732,365.548c0-4.465-0.156-8.065-0.312-11.377h6.164l0.312,5.977h0.156
		c2.809-4.249,7.256-6.77,13.419-6.77c9.129,0,15.994,7.129,15.994,17.714c0,12.529-8.27,18.722-17.164,18.722
		c-4.993,0-9.362-2.016-11.625-5.473h-0.155v18.938h-6.788V365.548z M190.52,374.836c0,0.937,0.155,1.801,0.312,2.593
		c1.248,4.393,5.384,7.416,10.299,7.416c7.255,0,11.469-5.472,11.469-13.465c0-6.984-3.979-12.961-11.235-12.961
		c-4.681,0-9.05,3.096-10.376,7.849c-0.234,0.792-0.468,1.729-0.468,2.592V374.836z"/>
	<path fill="#FFFFFF" d="M252.699,380.669c0,3.024,0.156,5.977,0.624,8.353h-6.241l-0.547-4.393h-0.233
		c-2.106,2.736-6.164,5.185-11.547,5.185c-7.646,0-11.547-4.969-11.547-10.009c0-8.425,8.114-13.033,22.703-12.961v-0.721
		c0-2.88-0.857-8.064-8.582-8.064c-3.511,0-7.178,1.008-9.83,2.593l-1.561-4.177c3.121-1.872,7.646-3.097,12.405-3.097
		c11.547,0,14.355,7.273,14.355,14.258V380.669z M246.067,371.236c-7.489-0.145-15.993,1.08-15.993,7.849
		c0,4.104,2.964,6.048,6.475,6.048c4.916,0,8.036-2.88,9.129-5.832c0.233-0.648,0.39-1.368,0.39-2.017V371.236z"/>
	<path fill="#FFFFFF" d="M288.743,387.726c-1.794,0.864-5.773,2.088-10.845,2.088c-11.391,0-18.802-7.2-18.802-17.857
		c0-10.729,7.958-18.506,20.284-18.506c4.058,0,7.646,0.937,9.519,1.801l-1.561,4.896c-1.638-0.864-4.213-1.656-7.958-1.656
		c-8.659,0-13.341,5.904-13.341,13.177c0,8.064,5.617,13.033,13.107,13.033c3.9,0,6.476-0.937,8.426-1.729L288.743,387.726z"/>
	<path fill="#FFFFFF" d="M294.829,337.897h6.865v21.745h0.156c1.093-1.8,2.809-3.384,4.915-4.464
		c2.028-1.08,4.447-1.801,7.021-1.801c5.071,0,13.186,2.881,13.186,14.905v20.738h-6.865v-20.018c0-5.616-2.263-10.369-8.738-10.369
		c-4.447,0-7.958,2.88-9.206,6.337c-0.391,0.864-0.469,1.8-0.469,3.024v21.025h-6.865V337.897z"/>
	<path fill="#FFFFFF" d="M340.001,372.748c0.155,8.568,6.085,12.097,12.95,12.097c4.916,0,7.88-0.792,10.455-1.8l1.17,4.536
		c-2.418,1.009-6.554,2.232-12.561,2.232c-11.625,0-18.568-7.129-18.568-17.642s6.709-18.794,17.71-18.794
		c12.327,0,15.604,10.01,15.604,16.418c0,1.296-0.156,2.304-0.234,2.952H340.001z M360.129,368.212
		c0.078-4.032-1.794-10.297-9.518-10.297c-6.943,0-9.986,5.904-10.532,10.297H360.129z"/>
	<path fill="#FFFFFF" d="M176.241,459.653c-2.185,1.008-7.1,2.16-13.497,2.16c-18.179,0-27.541-10.513-27.541-24.338
		c0-16.562,12.795-25.778,28.711-25.778c6.163,0,10.845,1.152,12.951,2.16l-2.419,8.713c-2.418-0.937-5.773-1.801-9.986-1.801
		c-9.44,0-16.773,5.257-16.773,16.058c0,9.721,6.241,15.842,16.852,15.842c3.589,0,7.567-0.721,9.908-1.584L176.241,459.653z"/>
	<path fill="#FFFFFF" d="M181.467,409.897h11.859v20.089h0.155c1.249-1.512,2.81-2.735,4.682-3.6
		c1.794-0.864,3.979-1.368,6.163-1.368c7.568,0,13.342,4.824,13.342,15.409v20.594h-11.859v-19.37c0-4.608-1.716-7.776-6.163-7.776
		c-3.121,0-5.071,1.872-5.93,3.816c-0.312,0.72-0.39,1.656-0.39,2.448v20.882h-11.859V409.897z"/>
	<path fill="#FFFFFF" d="M234.364,446.908c0.39,4.536,5.227,6.696,10.766,6.696c4.058,0,7.334-0.504,10.533-1.439l1.56,7.416
		c-3.9,1.44-8.659,2.232-13.809,2.232c-12.951,0-20.363-6.984-20.363-18.002c0-8.929,6.008-18.793,19.271-18.793
		c12.327,0,17.009,8.856,17.009,17.569c0,1.872-0.234,3.528-0.391,4.32H234.364z M248.329,439.42c0-2.664-1.248-7.129-6.71-7.129
		c-4.993,0-7.021,4.177-7.333,7.129H248.329z"/>
	<path fill="#FFFFFF" d="M264.479,437.043c0-4.392-0.155-8.137-0.312-11.232h9.986l0.546,4.752h0.234
		c1.638-2.231,4.993-5.544,11.546-5.544c4.916,0,8.816,2.304,10.455,5.977h0.156c1.404-1.872,3.12-3.24,4.915-4.249
		c2.106-1.151,4.446-1.728,7.256-1.728c7.333,0,12.873,4.752,12.873,15.265v20.738h-11.547v-19.153c0-5.112-1.795-8.065-5.617-8.065
		c-2.731,0-4.682,1.729-5.462,3.816c-0.312,0.792-0.468,1.944-0.468,2.809v20.594h-11.547v-19.729c0-4.465-1.717-7.489-5.461-7.489
		c-3.043,0-4.838,2.16-5.54,3.961c-0.39,0.864-0.468,1.872-0.468,2.736v20.521h-11.547V437.043z"/>
	<path fill="#FFFFFF" d="M341.874,416.018c0,3.024-2.496,5.473-6.397,5.473c-3.745,0-6.241-2.448-6.163-5.473
		c-0.078-3.168,2.418-5.545,6.241-5.545S341.795,412.85,341.874,416.018z M329.625,461.021v-35.211h11.859v35.211H329.625z"/>
	<path fill="#FFFFFF" d="M348.972,451.444c2.185,1.225,6.71,2.665,10.221,2.665c3.589,0,5.071-1.152,5.071-2.953
		c0-1.8-1.17-2.664-5.617-4.032c-7.88-2.448-10.923-6.408-10.845-10.513c0-6.625,6.086-11.593,15.525-11.593
		c4.447,0,8.427,0.936,10.767,2.016l-2.106,7.561c-1.716-0.863-4.993-2.016-8.27-2.016c-2.887,0-4.525,1.08-4.525,2.88
		c0,1.656,1.482,2.521,6.163,4.032c7.256,2.305,10.299,5.688,10.377,10.873c0,6.553-5.617,11.449-16.54,11.449
		c-4.993,0-9.44-1.08-12.327-2.521L348.972,451.444z"/>
	<path fill="#FFFFFF" d="M394.222,416.233v9.577h8.504v8.064h-8.504v12.745c0,4.248,1.092,6.192,4.681,6.192
		c1.639,0,2.341-0.071,3.511-0.288l0.078,8.281c-1.561,0.576-4.37,1.008-7.724,1.008c-3.823,0-7.021-1.296-8.895-3.097
		c-2.184-2.088-3.276-5.472-3.276-10.44v-14.401h-5.071v-8.064h5.071v-6.625L394.222,416.233z"/>
	<path fill="#FFFFFF" d="M407.641,437.403c0-5.185-0.156-8.568-0.312-11.593h10.221l0.391,6.48h0.311
		c1.951-5.112,6.633-7.272,10.299-7.272c1.092,0,1.639,0,2.498,0.144v10.369c-0.859-0.216-1.873-0.36-3.199-0.36
		c-4.369,0-7.334,2.16-8.115,5.545c-0.154,0.72-0.232,1.584-0.232,2.448v17.857h-11.859V437.403z"/>
	<path fill="#FFFFFF" d="M445.635,425.811l5.695,17.281c0.623,2.088,1.404,4.681,1.871,6.553h0.234
		c0.547-1.872,1.17-4.536,1.717-6.553l4.682-17.281h12.717l-8.895,23.186c-5.461,13.97-9.129,19.586-13.42,23.114
		c-4.135,3.312-8.504,4.465-11.469,4.824l-2.496-9.288c1.482-0.217,3.355-0.864,5.15-1.873c1.793-0.863,3.744-2.592,4.914-4.392
		c0.391-0.504,0.625-1.08,0.625-1.584c0-0.36-0.078-0.937-0.547-1.801l-13.965-32.187H445.635z"/>
</g>
</svg>
